# xmcd
#
# Track frame offsets:
#	150
#	11975
#	25010
#	37700
#	50080
#	63400
#	76602
#	90097
#	102397
#	115842
#	125235
#	137875
#	148740
#	161122
#	173940
#	188705
#	201317
#	216420
#
# Disc length: 3076 seconds
#
# Revision: 0
# Processed by: cddbd v1.5.1PL0 Copyright (c) Steve Scherf et al.
# Submitted via: EasyCDDAExtractor 8.2.1.1
#
DISCID=010c0212
DTITLE=Various Artist - Country Heaven, The Legends Live On Disc 1
DYEAR=1900
DGENRE=Country
TTITLE0=Ernest Tubb - Walking The Floor Over You
TTITLE1=Hank Williams - Jambalaya (On The Bayou)
TTITLE2=Patsy Cline - I Fall To Pieces
TTITLE3=Leon Payne - I Love You Because
TTITLE4=Lefty Frizzell - If You've Got The Money (I've Got The Time)
TTITLE5=Bob Wills  - Faded Love
TTITLE6=George Morgan - Candy Kisses
TTITLE7=Johnny Bond  - Cimarron (Roll On)
TTITLE8=Stuart Hamblen - This Ole House
TTITLE9=Bob Luman - Let's Think About Living
TTITLE10=jack Guthrie - Oklahoma Hills
TTITLE11=Kenny Price - Walkin On New Grass
TTITLE12=Skeets McDonald - Don't Let The Stars Get In Your Eyes
TTITLE13=Meerle Travis - Sixteen Tons
TTITLE14=Vernon Dalhart - The Prisoner's Song
TTITLE15=Jimmy Wakely - One Has My Name (The Other Has My Heart)
TTITLE16=T. Texas Tyler - Deck Of Cards
TTITLE17=Red Foley - Peace In The Valley
EXTD=
EXTT0=
EXTT1=
EXTT2=
EXTT3=
EXTT4=
EXTT5=
EXTT6=
EXTT7=
EXTT8=
EXTT9=
EXTT10=
EXTT11=
EXTT12=
EXTT13=
EXTT14=
EXTT15=
EXTT16=
EXTT17=
PLAYORDER=
